<svg width="17.000000" height="17.000000" viewBox="0 0 17 17" fill="none" xmlns="http://www.w3.org/2000/svg" xmlns:xlink="http://www.w3.org/1999/xlink">
	<desc>
			Created with Pixso.
	</desc>
	<defs/>
	<path id="Vector" d="M16.71 8C16.71 3.18 12.81 -0.72 8 -0.72C3.18 -0.72 -0.72 3.18 -0.72 8C-0.72 12.81 3.18 16.71 8 16.71C12.81 16.71 16.71 12.81 16.71 8ZM8 15.59C3.82 15.59 0.4 12.21 0.4 8C0.4 3.82 3.78 0.4 8 0.4C12.17 0.4 15.59 3.78 15.59 8C15.59 12.17 12.21 15.59 8 15.59ZM9.12 11.37L5.75 8L9.12 4.62L9.12 11.37ZM10.25 4.62C10.25 3.62 9.03 3.12 8.33 3.83L4.95 7.2C4.51 7.64 4.51 8.35 4.95 8.79L8.33 12.17C9.03 12.87 10.25 12.38 10.25 11.37L10.25 4.62Z" fill="#000000" fill-opacity="1.000000" fill-rule="nonzero"/>
</svg>
